#!OML:ASF I:\Actors\actors\Patient Classification 2\Patient 1\Session 1\actor1.ASF
:FULLY-SPECIFIED
:DEGREES
287
root -0.927716 18.5373 6.14822 18.624 21.8923 11.5885
lowerback 18.0987 -1.30646 6.68682
upperback 3.18433 -0.120733 3.30877
thorax -6.71649 -0.141842 -0.215325
lowerneck -1.29787 -14.9815 -15.018
upperneck 12.9589 -21.2547 14.4104
head 7.35807 -10.2291 5.04252
rclavicle 6.36111e-015 4.77083e-014
rhumerus -11.6576 -4.72451 -51.1642
rradius 67.926
rwrist -39.9128
rhand -14.3584 -78.0708
rfingers 7.12502
rthumb 11.7835 -252.281
lclavicle 6.36111e-015 4.77083e-014
lhumerus -40.113 -29.1976 106.16
lradius 87.5465
lwrist 37.1136
lhand -11.913 -12.4642
lfingers 7.12502
lthumb 14.1408 17.0345
rfemur -29.4443 -5.10522 3.19408
rtibia 30.0514
rfoot -20.749 -8.62415
rtoes -3.48377
lfemur -12.7312 -2.61647 -23.6149
ltibia 18.9725
lfoot -18.8411 4.34872
ltoes -56.3584
288
root -0.901924 18.5363 6.12349 18.2634 21.5354 11.3078
lowerback 18.0562 -1.21112 6.53345
upperback 3.18134 -0.0364114 3.24787
thorax -6.69228 -0.0990447 -0.215085
lowerneck -1.34056 -14.9104 -14.8998
upperneck 13.1941 -21.1616 14.2461
head 7.39429 -10.181 4.98418
rclavicle -4.29375e-014 -3.18055e-014
rhumerus -13.4315 -4.12973 -52.3309
rradius 69.1592
rwrist -39.6442
rhand -14.3995 -77.7135
rfingers 7.12502
rthumb 11.7439 -252.636
lclavicle -4.29375e-014 -3.18055e-014
lhumerus -40.2629 -29.1294 106.175
lradius 87.5147
lwrist 37.0321
lhand -12.0088 -12.4423
lfingers 7.12502
lthumb 14.0485 17.063
rfemur -29.175 -4.78013 3.26483
rtibia 29.6685
rfoot -20.5122 -8.62322
rtoes -3.92458
lfemur -12.4124 -2.56454 -23.5831
ltibia 18.8787
lfoot -19.1891 4.75301
ltoes -56.4378
289
root -0.873314 18.5339 6.09685 17.9125 21.1501 11.0274
lowerback 17.9602 -1.09276 6.40976
upperback 3.18979 0.0758797 3.16123
thorax -6.62532 -0.0425867 -0.266299
lowerneck -1.44484 -14.8536 -14.6405
upperneck 13.4895 -21.0749 13.959
head 7.43184 -10.1318 4.86216
rclavicle -3.18055e-014 6.36111e-015
rhumerus -15.2418 -3.52496 -53.4919
rradius 70.3342
rwrist -39.5975
rhand -14.6274 -77.5197
rfingers 7.12502
rthumb 11.5241 -252.817
lclavicle -3.18055e-014 6.36111e-015
lhumerus -40.38 -29.1582 106.146
lradius 87.4487
lwrist 37.0805
lhand -12.0254 -12.4906
lfingers 7.12502
lthumb 14.0325 17.0157
rfemur -28.9308 -4.41677 3.31488
rtibia 29.2932
rfoot -20.2532 -8.66163
rtoes -4.56321
lfemur -12.0944 -2.46835 -23.5699
ltibia 18.7506
lfoot -19.461 5.17189
ltoes -56.5738
290
root -0.842284 18.5329 6.06999 17.5302 20.8361 10.7717
lowerback 17.9115 -1.02124 6.29161
upperback 3.18458 0.136055 3.098
thorax -6.60164 -0.0120793 -0.282229
lowerneck -1.42418 -14.7603 -14.5361
upperneck 13.7063 -20.9577 13.814
head 7.45223 -10.0754 4.82045
rclavicle 0 -4.13472e-014
rhumerus -17.0126 -3.03355 -54.687
rradius 71.5074
rwrist -39.276
rhand -14.6597 -77.4491
rfingers 7.12502
rthumb 11.493 -252.886
lclavicle 0 -4.13472e-014
lhumerus -40.4616 -29.071 106.123
lradius 87.3435
lwrist 37.1381
lhand -11.9794 -12.5337
lfingers 7.12502
lthumb 14.0769 16.9696
rfemur -28.6062 -4.07501 3.35298
rtibia 28.9339
rfoot -20.0842 -8.67892
rtoes -4.7521
lfemur -11.7243 -2.42611 -23.5495
ltibia 18.6143
lfoot -19.6538 5.44254
ltoes -56.4211
291
root -0.81273 18.5331 6.04283 17.1051 20.5227 10.5483
lowerback 17.9733 -0.97467 6.05923
upperback 3.16482 0.156856 3.07834
thorax -6.65632 0.000506664 -0.176563
lowerneck -1.29856 -14.6344 -14.6821
upperneck 13.7914 -20.8178 13.8986
head 7.4628 -10.0158 4.89688
rclavicle 1.59028e-014 -1.59028e-014
rhumerus -18.7243 -2.55301 -55.9633
rradius 72.6149
rwrist -38.8681
rhand -13.7653 -77.9055
rfingers 7.12502
rthumb 12.3554 -252.48
lclavicle 1.59028e-014 -1.59028e-014
lhumerus -40.558 -28.8157 106.134
lradius 87.2601
lwrist 37.0819
lhand -11.973 -12.5097
lfingers 7.12502
lthumb 14.083 16.9931
rfemur -28.2202 -3.71948 3.36427
rtibia 28.5817
rfoot -19.9407 -8.68665
rtoes -4.68032
lfemur -11.2868 -2.4515 -23.5422
ltibia 18.4814
lfoot -19.837 5.69317
ltoes -56.2243
292
root -0.782533 18.5312 6.01321 16.7431 20.1654 10.3853
lowerback 18.0027 -0.911002 5.7494
upperback 3.12292 0.180726 3.03083
thorax -6.71762 0.0154155 -0.0578554
lowerneck -1.23778 -14.5326 -14.7152
upperneck 13.9104 -20.6988 13.8888
head 7.47516 -9.96247 4.9201
rclavicle 4.77083e-015 4.77083e-014
rhumerus -20.4875 -2.07798 -57.3239
rradius 73.6792
rwrist -38.5989
rhand -12.1811 -78.6551
rfingers 7.12502
rthumb 13.8825 -251.828
lclavicle 4.77083e-015 4.77083e-014
lhumerus -40.6907 -28.5336 106.133
lradius 87.1803
lwrist 36.9794
lhand -11.9339 -12.371
lfingers 7.12502
lthumb 14.1207 17.1292
rfemur -27.9011 -3.37204 3.29946
rtibia 28.2204
rfoot -19.7839 -8.67401
rtoes -4.64348
lfemur -10.9034 -2.40518 -23.6079
ltibia 18.3595
lfoot -20.0194 5.91125
ltoes -56.14
293
root -0.749511 18.5286 5.98171 16.4333 19.8011 10.2796
lowerback 18.0036 -0.833499 5.43564
upperback 3.06843 0.217055 2.95008
thorax -6.77654 0.0360817 0.0244647
lowerneck -1.34564 -14.4731 -14.4122
upperneck 14.1759 -20.5901 13.5023
head 7.48621 -9.90771 4.76349
rclavicle 6.36111e-015 0
rhumerus -22.2794 -1.71032 -58.6751
rradius 74.6674
rwrist -38.2212
rhand -12.4477 -78.1707
rfingers 7.12502
rthumb 13.6255 -252.295
lclavicle 6.36111e-015 0
lhumerus -40.8763 -28.3727 106.134
lradius 87.0995
lwrist 36.9565
lhand -11.9346 -12.2757
lfingers 7.12502
lthumb 14.12 17.2246
rfemur -27.6092 -3.08615 3.17435
rtibia 27.8315
rfoot -19.6113 -8.62115
rtoes -4.59089
lfemur -10.5885 -2.28375 -23.7438
ltibia 18.2853
lfoot -20.2071 6.06077
ltoes -56.0074
294
root -0.717209 18.5291 5.95114 16.1114 19.4482 10.1178
lowerback 17.9849 -0.762246 5.13893
upperback 3.01608 0.250793 2.91846
thorax -6.82311 0.0562812 0.150464
lowerneck -1.4669 -14.3944 -14.2507
upperneck 14.4341 -20.463 13.2214
head 7.52295 -9.84506 4.66033
rclavicle -2.70347e-014 1.11319e-014
rhumerus -23.9469 -1.39558 -60.0091
rradius 75.4506
rwrist -37.8107
rhand -15.5408 -76.2435
rfingers 7.12502
rthumb 10.6432 -254.046
lclavicle -2.70347e-014 1.11319e-014
lhumerus -41.0599 -28.2509 106.159
lradius 87.0308
lwrist 36.9621
lhand -12.0791 -12.2389
lfingers 7.12502
lthumb 13.9807 17.271
rfemur -27.3039 -2.77933 3.11462
rtibia 27.4009
rfoot -19.4696 -8.60798
rtoes -4.52531
lfemur -10.3406 -2.15526 -23.8181
ltibia 18.3129
lfoot -20.4341 6.21474
ltoes -55.8435
295
root -0.684686 18.5318 5.92049 15.7709 19.1224 9.87982
lowerback 17.8816 -0.703289 4.85031
upperback 3.00047 0.267913 2.95736
thorax -6.78521 0.0712886 0.350463
lowerneck -1.45805 -14.2909 -14.4779
upperneck 14.492 -20.3452 13.3662
head 7.56364 -9.79238 4.75388
rclavicle -2.22639e-014 2.8625e-014
rhumerus -25.5093 -1.08 -61.3303
rradius 76.1703
rwrist -37.6144
rhand -13.4269 -77.2515
rfingers 7.12502
rthumb 12.6817 -253.154
lclavicle -2.22639e-014 2.8625e-014
lhumerus -41.1172 -28.0252 106.198
lradius 86.9113
lwrist 36.9223
lhand -12.1656 -12.2124
lfingers 7.12502
lthumb 13.8975 17.3032
rfemur -26.9832 -2.46697 3.14493
rtibia 26.9319
rfoot -19.2802 -8.6633
rtoes -4.768
lfemur -10.1601 -1.97147 -23.8183
ltibia 18.4244
lfoot -20.5994 6.3449
ltoes -55.7935
296
root -0.649048 18.5353 5.88696 15.4478 18.7753 9.64078
lowerback 17.7193 -0.636672 4.48071
upperback 3.03031 0.278132 3.04423
thorax -6.66731 0.0869089 0.64824
lowerneck -1.52129 -14.1755 -14.6303
upperneck 14.5324 -20.186 13.3995
head 7.58397 -9.72026 4.80353
rclavicle 1.11319e-014 -3.81667e-014
rhumerus -26.9895 -0.800346 -62.5859
rradius 76.9817
rwrist -37.2987
rhand -12.9946 -77.0027
rfingers 7.12502
rthumb 13.0984 -253.429
lclavicle 1.11319e-014 -3.81667e-014
lhumerus -41.0225 -27.7012 106.224
lradius 86.7187
lwrist 36.8958
lhand -12.0804 -12.2483
lfingers 7.12502
lthumb 13.9795 17.2616
rfemur -26.6824 -2.17952 3.1743
rtibia 26.4452
rfoot -18.9248 -8.76765
rtoes -5.46777
lfemur -10.0383 -1.82615 -23.8443
ltibia 18.588
lfoot -20.6986 6.57227
ltoes -55.8342
297
root -0.614933 18.5388 5.85467 15.1263 18.4703 9.45913
lowerback 17.7428 -0.563342 4.34622
upperback 2.96128 0.344567 2.94763
thorax -6.75321 0.118285 0.606329
lowerneck -1.59507 -14.1201 -14.6034
upperneck 14.7836 -20.1303 13.3695
head 7.66413 -9.68605 4.79065
rclavicle -7.15625e-015 -2.38542e-014
rhumerus -28.7797 -0.852642 -63.9262
rradius 77.8466
rwrist -36.5968
rhand -13.0604 -76.462
rfingers 7.12502
rthumb 13.0349 -253.965
lclavicle -7.15625e-015 -2.38542e-014
lhumerus -41.221 -27.7426 106.207
lradius 86.6102
lwrist 36.9102
lhand -12.0207 -12.209
lfingers 7.12502
lthumb 14.0371 17.297
rfemur -26.3398 -1.88051 3.14879
rtibia 25.9683
rfoot -18.6087 -8.91848
rtoes -6.09766
lfemur -9.92224 -1.78206 -23.9126
ltibia 18.8096
lfoot -20.8136 6.88808
ltoes -55.8939
298
root -0.582577 18.541 5.82382 14.7766 18.2546 9.33976
lowerback 17.7864 -0.545321 4.15941
upperback 2.92372 0.328621 2.84636
thorax -6.81812 0.111957 0.607814
lowerneck -1.68094 -14.0472 -14.6005
upperneck 14.9676 -20.0518 13.3991
head 7.73028 -9.6401 4.80347
rclavicle -2.22639e-014 5.56597e-014
rhumerus -30.4527 -0.860306 -65.2763
rradius 78.6185
rwrist -35.7681
rhand -13.7156 -75.9202
rfingers 7.12502
rthumb 12.4033 -254.468
lclavicle -2.22639e-014 5.56597e-014
lhumerus -41.4155 -27.7397 106.119
lradius 86.6005
lwrist 36.8791
lhand -12.0109 -12.0806
lfingers 7.12502
lthumb 14.0465 17.4247
rfemur -25.9257 -1.60759 3.06804
rtibia 25.53
rfoot -18.4075 -9.03259
rtoes -6.15556
lfemur -9.77386 -1.76876 -24.0107
ltibia 19.0761
lfoot -20.9764 7.13116
ltoes -55.8694
299
root -0.547164 18.5416 5.78934 14.4193 18.0592 9.21565
lowerback 17.8133 -0.579628 3.97455
upperback 2.90095 0.244984 2.77236
thorax -6.85928 0.0739048 0.653022
lowerneck -1.73779 -13.9183 -14.6148
upperneck 15.046 -19.8876 13.4341
head 7.74615 -9.55852 4.83683
rclavicle 2.70347e-014 -4.29375e-014
rhumerus -31.9173 -0.739843 -66.59
rradius 79.2361
rwrist -35.0767
rhand -15.9023 -74.8544
rfingers 7.12502
rthumb 10.2944 -255.418
lclavicle 2.70347e-014 -4.29375e-014
lhumerus -41.5351 -27.5851 105.992
lradius 86.6098
lwrist 36.8606
lhand -11.9737 -12.0294
lfingers 7.12502
lthumb 14.0823 17.4735
rfemur -25.5396 -1.3498 2.97521
rtibia 25.1464
rfoot -18.1865 -9.08732
rtoes -5.62761
lfemur -9.64645 -1.61169 -24.0996
ltibia 19.3628
lfoot -21.128 7.14246
ltoes -55.6784
300
root -0.50965 18.5407 5.75348 14.0316 17.8625 9.0954
lowerback 17.7613 -0.614927 3.67242
upperback 2.93686 0.136527 2.76971
thorax -6.79499 0.0292324 0.845529
lowerneck -1.84481 -13.7637 -14.7216
upperneck 15.1191 -19.6776 13.479
head 7.77292 -9.45741 4.88927
rclavicle -1.27222e-014 -1.11319e-014
rhumerus -33.1951 -0.525222 -67.8003
rradius 79.7935
rwrist -34.747
rhand -13.5263 -76.6205
rfingers 7.12502
rthumb 12.5858 -253.779
lclavicle -1.27222e-014 -1.11319e-014
lhumerus -41.504 -27.3363 105.879
lradius 86.5687
lwrist 36.8684
lhand -12.0259 -12.0736
lfingers 7.12502
lthumb 14.032 17.4327
rfemur -25.1468 -1.09421 2.87714
rtibia 24.8066
rfoot -17.9447 -9.15509
rtoes -5.09821
lfemur -9.49761 -1.33636 -24.1891
ltibia 19.6691
lfoot -21.2435 6.9838
ltoes -55.4555
301
root -0.469564 18.538 5.71645 13.6575 17.6578 9.02254
lowerback 17.6951 -0.603582 3.42075
upperback 2.95768 0.0930471 2.69729
thorax -6.73734 0.0134229 0.919534
lowerneck -1.97771 -13.6832 -14.7043
upperneck 15.2576 -19.5657 13.4352
head 7.81786 -9.39869 4.87898
rclavicle -5.56597e-015 -3.65764e-014
rhumerus -34.5943 -0.511067 -69.004
rradius 80.4446
rwrist -34.5416
rhand -13.5178 -74.8161
rfingers 7.12502
rthumb 12.5941 -255.583
lclavicle -5.56597e-015 -3.65764e-014
lhumerus -41.4879 -27.2664 105.8
lradius 86.4801
lwrist 36.891
lhand -12.087 -12.0868
lfingers 7.12502
lthumb 13.9732 17.4236
rfemur -24.7712 -0.864022 2.73163
rtibia 24.495
rfoot -17.6684 -9.25124
rtoes -4.68413
lfemur -9.35564 -1.24493 -24.3404
ltibia 20.0063
lfoot -21.4132 6.96473
ltoes -55.2477
